{"title":"Eastons.Article.2012.HDRiP.XViD UNiQUE","uid":8893626,"size":1549029715,"categoryP":"video","categoryS":"movies","magnet":"?xt=urn:btih:f89abbc8af543e6f4ec3e68c8e9e130490518e08&amp;dn=Eastons.Article.2012.HDRiP.XViD+UNiQUE&amp;tr=udp%3A%2F%2Ftracker.openbittorrent.com%3A80&amp;tr=udp%3A%2F%2Fopen.demonii.com%3A1337&amp;tr=udp%3A%2F%2Ftracker.coppersurfer.tk%3A6969&amp;tr=udp%3A%2F%2Fexodus.desync.com%3A6969","seeders":0,"leechers":1,"uploader":"Acesn8s","files":-1,"time":1378645924,"description":"Easton's.Article.2012.HDRiP.XViD UNiQUE  \n\n\nFormat                                   : AVI\nFormat/Info                              : Audio Video Interleave\nFile size                                : 1.43 GiB\nDuration                                 : 1h 28mn\nOverall bit rate                         : 2 308 Kbps\nWriting application                      : VirtualDubMod 1.5.10.2 (build 2540/release)\nWriting library                          : VirtualDubMod build 2540/release\n\nVideo\nID                                       : 0\nFormat                                   : MPEG-4 Visual\nFormat profile                           : Advanced Simple@L5\nFormat settings, BVOP                    : 2\nFormat settings, QPel                    : No\nFormat settings, GMC                     : No warppoints\nFormat settings, Matrix                  : Default (H.263)\nMuxing mode                              : Packed bitstream\nCodec ID                                 : XVID\nCodec ID/Hint                            : XviD\nDuration                                 : 1h 28mn\nBit rate                                 : 2 106 Kbps\nWidth                                    : 720 pixels\nHeight                                   : 304 pixels\nDisplay aspect ratio                     : 2.35:1\nFrame rate                               : 23.976 fps\nColor space                              : YUV\nChroma subsampling                       : 4:2:0\nBit depth                                : 8 bits\nScan type                                : Progressive\nCompression mode                         : Lossy\nBits/(Pixel*Frame)                       : 0.401\nStream size                              : 1.30 GiB (91%)\nWriting library                          : XviD 64\n\nAudio\nID                                       : 1\nFormat                                   : AC-3\nFormat/Info                              : Audio Coding 3\nMode extension                           : CM (complete main)\nFormat settings, Endianness              : Big\nCodec ID                                 : 2000\nDuration                                 : 1h 28mn\nBit rate mode                            : Constant\nBit rate                                 : 192 Kbps\nChannel(s)                               : 2 channels\nChannel positions                        : Front: L R\nSampling rate                            : 48.0 KHz\nBit depth                                : 16 bits\nCompression mode                         : Lossy\nStream size                              : 122 MiB (8%)\nAlignment                                : Split accross interleaves\nInterleave, duration                     : 42 ms (1.00 video frame)\nInterleave, preload duration             : 500 ms\n\n\nIMDB:\n &lt;a href=&quot;\nhttp://www.imdb.com/title/tt2091288/&quot; rel=&quot;nofollow&quot; target=&quot;_NEW&quot;&gt;\nhttp://www.imdb.com/title/tt2091288/&lt;/a&gt;\n\nCast: Chad Meyer, Kristina Johnson, Dan Flannery \n\nPlot: After receiving his future obituary via a cryptic Internet file, \nEaston Denning is forced to confront his troubled past in order to prevent his predicted demise. \n\nScreens:\n &lt;a href=&quot;\nhttp://img707.imageshack.us/img707/1177/bcpn.png&quot; rel=&quot;nofollow&quot; target=&quot;_NEW&quot;&gt;\nhttp://img707.imageshack.us/img707/1177/bcpn.png&lt;/a&gt;\n &lt;a href=&quot;\nhttp://imageshack.us/a/img4/7241/zlk6.png&quot; rel=&quot;nofollow&quot; target=&quot;_NEW&quot;&gt;\nhttp://imageshack.us/a/img4/7241/zlk6.png&lt;/a&gt;\n &lt;a href=&quot;\nhttp://imageshack.us/a/img22/8447/ws0y.png&quot; rel=&quot;nofollow&quot; target=&quot;_NEW&quot;&gt;\nhttp://imageshack.us/a/img22/8447/ws0y.png&lt;/a&gt;\n","torrent":{"xt":"urn:btih:f89abbc8af543e6f4ec3e68c8e9e130490518e08","amp;dn":"Eastons.Article.2012.HDRiP.XViD+UNiQUE","amp;tr":["udp%3A%2F%2Ftracker.openbittorrent.com%3A80","udp%3A%2F%2Fopen.demonii.com%3A1337","udp%3A%2F%2Ftracker.coppersurfer.tk%3A6969","udp%3A%2F%2Fexodus.desync.com%3A6969"],"infoHash":"f89abbc8af543e6f4ec3e68c8e9e130490518e08","infoHashBuffer":{"type":"Buffer","data":[248,154,187,200,175,84,62,111,78,195,230,140,142,158,19,4,144,81,142,8]},"announce":[],"urlList":[]}}